<?xml version="1.0" encoding="UTF-8"?> <svg xmlns="http://www.w3.org/2000/svg"
    viewBox="0 0 300 300" fill="none" id="constraint">
    <path
        d="M150.09 0.595703C197.832 0.595703 249.681 25.5826 254.667 54.541C259.654 83.4995 239.594 103.299 196.98 86.9713C154.365 70.6435 126.607 58.7316 100.857 58.8259C44.5451 59.0321 21.0917 103.893 19.6981 116.53C19.3506 119.682 22.0519 114.119 23.3961 112.128C26.774 107.126 50.6412 74.0526 96.0979 74.0526C141.555 74.0526 197.489 113.352 232.284 113.352C263.443 113.352 267.18 81.8702 266.508 69.2219C266.401 67.2158 268.452 66.9794 269.874 67.7395C275.644 70.8245 281.244 76.2353 285.329 86.9713C294.089 109.99 276.916 160.58 228.4 152.299C168.8 142.127 140.518 102.519 88.2499 100.897C35.9823 99.2747 14.875 145.753 15.9342 154.097C16.4211 156.227 17.7931 152.302 18.6547 150.612C27.4232 133.414 52.2911 115.35 85.1077 116.335C133.587 117.789 185.555 171.706 232.284 171.706C275.298 171.706 288.475 143.165 288.475 132.842C288.475 131.246 290.111 130.279 291.593 131.665C294.607 134.482 299.837 145.928 299.837 157.256C299.837 186.868 263.706 223.744 218.085 212.422C149.335 195.361 117.11 142.776 74.7495 142.127C32.3893 141.478 16.0393 176.657 13.0918 195.361C12.4507 199.429 8.61217 199.796 6.92482 194.038C5.00434 187.484 0.883285 174.544 0.450989 150.005C0.0186931 125.467 10.6548 92.2008 35.4483 67.3797C60.2419 42.5587 92.6482 35.3858 118.036 35.3858C156.387 35.3858 187.691 60.0523 196.98 49.1744C204.324 40.5733 182.669 17.2139 132.301 17.2139C105.135 17.2139 72.522 27.6309 47.8809 47.6766C44.7399 50.2319 42.3269 46.8319 44.7399 44.2164C59.418 28.3064 97.5683 0.595703 150.09 0.595703Z"
        fill="white"></path>
    <path
        d="M20.1712 215.625C17.8768 181.105 45.2927 159.023 71.1499 159.023C123.403 159.023 155.05 230.233 230.973 230.233C246.163 230.233 269.932 222.727 281.359 212.422C283.782 210.237 286.173 212.943 284.791 215.307C270.006 240.59 243.997 255.618 205.125 255.618C173.496 255.618 142.927 235.326 116.054 215.38C105.099 207.248 104.432 221.45 113.022 236.794C121.613 252.138 140.42 274.248 185.555 274.248C226.146 274.248 252.347 252.49 255.419 250.155C258.491 247.821 260.327 251.223 258.914 252.836C248.198 265.067 209.034 299.997 150.058 299.997C102.569 299.997 64.1117 277.415 41.6204 253.331C39.9605 251.554 41.7049 247.827 45.0257 249.89C73.4285 267.529 85.0213 272.155 106.6 276.003C108.251 276.298 114.365 276.126 110.859 273.741C80.8698 253.331 73.8827 222.387 69.7947 216.079C65.7068 209.77 59.3731 205.654 52.2914 205.654C45.2097 205.654 38.0217 209.068 34.0346 215.625C30.0474 222.181 30.4702 228.015 30.4702 231.782C30.4702 235.549 27.5096 235.139 26.1344 233.701C23.4068 230.85 20.7524 224.368 20.1712 215.625Z"
        fill="white"></path>
</svg>
